<svg xmlns="http://www.w3.org/2000/svg" xmlns:xlink="http://www.w3.org/1999/xlink" width="1366" height="768" viewBox="0 0 1366 768">
  <defs>
    <filter id="Ellipse_10" x="150.75" y="540.988" width="75.184" height="75.184" filterUnits="userSpaceOnUse">
      <feOffset dy="3" input="SourceAlpha"/>
      <feGaussianBlur stdDeviation="3" result="blur"/>
      <feFlood flood-opacity="0.161"/>
      <feComposite operator="in" in2="blur"/>
      <feComposite in="SourceGraphic"/>
    </filter>
    <filter id="Ellipse_8" x="83.762" y="630.137" width="88.527" height="88.527" filterUnits="userSpaceOnUse">
      <feOffset dy="3" input="SourceAlpha"/>
      <feGaussianBlur stdDeviation="3" result="blur-2"/>
      <feFlood flood-opacity="0.161"/>
      <feComposite operator="in" in2="blur-2"/>
      <feComposite in="SourceGraphic"/>
    </filter>
    <filter id="Ellipse_11" x="46.796" y="533.077" width="61.968" height="61.968" filterUnits="userSpaceOnUse">
      <feOffset dy="3" input="SourceAlpha"/>
      <feGaussianBlur stdDeviation="3" result="blur-3"/>
      <feFlood flood-opacity="0.161"/>
      <feComposite operator="in" in2="blur-3"/>
      <feComposite in="SourceGraphic"/>
    </filter>
    <filter id="Ellipse_12" x="110.218" y="507.347" width="42.78" height="42.78" filterUnits="userSpaceOnUse">
      <feOffset dy="3" input="SourceAlpha"/>
      <feGaussianBlur stdDeviation="3" result="blur-4"/>
      <feFlood flood-opacity="0.161"/>
      <feComposite operator="in" in2="blur-4"/>
      <feComposite in="SourceGraphic"/>
    </filter>
    <filter id="Ellipse_14" x="33.621" y="459.636" width="42.78" height="42.78" filterUnits="userSpaceOnUse">
      <feOffset dy="3" input="SourceAlpha"/>
      <feGaussianBlur stdDeviation="3" result="blur-5"/>
      <feFlood flood-opacity="0.161"/>
      <feComposite operator="in" in2="blur-5"/>
      <feComposite in="SourceGraphic"/>
    </filter>
    <filter id="Ellipse_9" x="247.508" y="638.392" width="42.78" height="42.78" filterUnits="userSpaceOnUse">
      <feOffset dy="3" input="SourceAlpha"/>
      <feGaussianBlur stdDeviation="3" result="blur-6"/>
      <feFlood flood-opacity="0.161"/>
      <feComposite operator="in" in2="blur-6"/>
      <feComposite in="SourceGraphic"/>
    </filter>
    <filter id="Ellipse_13" x="157.863" y="715.696" width="54.216" height="54.216" filterUnits="userSpaceOnUse">
      <feOffset dy="3" input="SourceAlpha"/>
      <feGaussianBlur stdDeviation="3" result="blur-7"/>
      <feFlood flood-opacity="0.161"/>
      <feComposite operator="in" in2="blur-7"/>
      <feComposite in="SourceGraphic"/>
    </filter>
    <filter id="Ellipse_10-2" x="1169.764" y="252.71" width="75.184" height="75.184" filterUnits="userSpaceOnUse">
      <feOffset dy="3" input="SourceAlpha"/>
      <feGaussianBlur stdDeviation="3" result="blur-8"/>
      <feFlood flood-opacity="0.161"/>
      <feComposite operator="in" in2="blur-8"/>
      <feComposite in="SourceGraphic"/>
    </filter>
    <filter id="Ellipse_8-2" x="1223.409" y="150.218" width="88.527" height="88.527" filterUnits="userSpaceOnUse">
      <feOffset dy="3" input="SourceAlpha"/>
      <feGaussianBlur stdDeviation="3" result="blur-9"/>
      <feFlood flood-opacity="0.161"/>
      <feComposite operator="in" in2="blur-9"/>
      <feComposite in="SourceGraphic"/>
    </filter>
    <filter id="Ellipse_11-2" x="1286.934" y="273.837" width="61.968" height="61.968" filterUnits="userSpaceOnUse">
      <feOffset dy="3" input="SourceAlpha"/>
      <feGaussianBlur stdDeviation="3" result="blur-10"/>
      <feFlood flood-opacity="0.161"/>
      <feComposite operator="in" in2="blur-10"/>
      <feComposite in="SourceGraphic"/>
    </filter>
    <filter id="Ellipse_12-2" x="1242.7" y="318.755" width="42.78" height="42.78" filterUnits="userSpaceOnUse">
      <feOffset dy="3" input="SourceAlpha"/>
      <feGaussianBlur stdDeviation="3" result="blur-11"/>
      <feFlood flood-opacity="0.161"/>
      <feComposite operator="in" in2="blur-11"/>
      <feComposite in="SourceGraphic"/>
    </filter>
    <filter id="Ellipse_14-2" x="1319.297" y="366.466" width="42.78" height="42.78" filterUnits="userSpaceOnUse">
      <feOffset dy="3" input="SourceAlpha"/>
      <feGaussianBlur stdDeviation="3" result="blur-12"/>
      <feFlood flood-opacity="0.161"/>
      <feComposite operator="in" in2="blur-12"/>
      <feComposite in="SourceGraphic"/>
    </filter>
    <filter id="Ellipse_9-2" x="1105.41" y="187.71" width="42.78" height="42.78" filterUnits="userSpaceOnUse">
      <feOffset dy="3" input="SourceAlpha"/>
      <feGaussianBlur stdDeviation="3" result="blur-13"/>
      <feFlood flood-opacity="0.161"/>
      <feComposite operator="in" in2="blur-13"/>
      <feComposite in="SourceGraphic"/>
    </filter>
    <filter id="Ellipse_13-2" x="1183.618" y="98.969" width="54.216" height="54.216" filterUnits="userSpaceOnUse">
      <feOffset dy="3" input="SourceAlpha"/>
      <feGaussianBlur stdDeviation="3" result="blur-14"/>
      <feFlood flood-opacity="0.161"/>
      <feComposite operator="in" in2="blur-14"/>
      <feComposite in="SourceGraphic"/>
    </filter>
    <filter id="Path_1" x="687" y="107.591" width="493.101" height="565.317" filterUnits="userSpaceOnUse">
      <feOffset dy="6" input="SourceAlpha"/>
      <feGaussianBlur stdDeviation="4" result="blur-15"/>
      <feFlood flood-opacity="0.161"/>
      <feComposite operator="in" in2="blur-15"/>
      <feComposite in="SourceGraphic"/>
    </filter>
    <filter id="Rectangle_10" x="744.692" y="284.067" width="378.718" height="63.083" filterUnits="userSpaceOnUse">
      <feOffset dy="3" input="SourceAlpha"/>
      <feGaussianBlur stdDeviation="3" result="blur-16"/>
      <feFlood flood-opacity="0.161"/>
      <feComposite operator="in" in2="blur-16"/>
      <feComposite in="SourceGraphic"/>
    </filter>
    <filter id="Rectangle_11" x="744.692" y="346.163" width="378.718" height="63.083" filterUnits="userSpaceOnUse">
      <feOffset dy="3" input="SourceAlpha"/>
      <feGaussianBlur stdDeviation="3" result="blur-17"/>
      <feFlood flood-opacity="0.161"/>
      <feComposite operator="in" in2="blur-17"/>
      <feComposite in="SourceGraphic"/>
    </filter>
    <filter id="Rectangle_8" x="744.692" y="461.653" width="378.718" height="63.083" filterUnits="userSpaceOnUse">
      <feOffset dy="3" input="SourceAlpha"/>
      <feGaussianBlur stdDeviation="3" result="blur-18"/>
      <feFlood flood-opacity="0.161"/>
      <feComposite operator="in" in2="blur-18"/>
      <feComposite in="SourceGraphic"/>
    </filter>
    <clipPath id="clip-Log_in_page">
      <rect width="1366" height="768"/>
    </clipPath>
  </defs>
  <g id="Log_in_page" data-name="Log in page" clip-path="url(#clip-Log_in_page)">
    <rect width="1366" height="768" fill="#486cff"/>
    <text id="Trellis" transform="translate(44 71)" fill="#fff" font-size="30" font-family="Poppins-Medium, Poppins" font-weight="500"><tspan x="0" y="0">Trellis</tspan></text>
    <g id="Group_1" data-name="Group 1" transform="translate(10.397 -181.69)">
      <g transform="matrix(1, 0, 0, 1, -10.4, 181.69)" filter="url(#Ellipse_10)">
        <circle id="Ellipse_10-3" data-name="Ellipse 10" cx="23.345" cy="23.345" r="23.345" transform="matrix(-0.97, -0.26, 0.26, -0.97, 204.85, 604.17)" fill="#fff"/>
      </g>
      <g transform="matrix(1, 0, 0, 1, -10.4, 181.69)" filter="url(#Ellipse_8)">
        <circle id="Ellipse_8-3" data-name="Ellipse 8" cx="28.792" cy="28.792" r="28.792" transform="matrix(-0.97, -0.26, 0.26, -0.97, 148.38, 706.66)" fill="#fff"/>
      </g>
      <g transform="matrix(1, 0, 0, 1, -10.4, 181.69)" filter="url(#Ellipse_11)">
        <circle id="Ellipse_11-3" data-name="Ellipse 11" cx="17.95" cy="17.95" r="17.95" transform="matrix(-0.97, -0.26, 0.26, -0.97, 90.47, 583.04)" fill="#fff"/>
      </g>
      <g transform="matrix(1, 0, 0, 1, -10.4, 181.69)" filter="url(#Ellipse_12)">
        <circle id="Ellipse_12-3" data-name="Ellipse 12" cx="10.116" cy="10.116" r="10.116" transform="matrix(-0.97, -0.26, 0.26, -0.97, 138.76, 538.13)" fill="#fff"/>
      </g>
      <g transform="matrix(1, 0, 0, 1, -10.4, 181.69)" filter="url(#Ellipse_14)">
        <circle id="Ellipse_14-3" data-name="Ellipse 14" cx="10.116" cy="10.116" r="10.116" transform="matrix(-0.97, -0.26, 0.26, -0.97, 62.16, 490.42)" fill="#fff"/>
      </g>
      <line id="Line_10" data-name="Line 10" y1="87.155" x2="28.014" transform="matrix(-0.966, -0.259, 0.259, -0.966, 152.017, 851.026)" fill="none" stroke="#fff" stroke-width="2"/>
      <line id="Line_11" data-name="Line 11" x1="62.254" y1="74.705" transform="matrix(-0.966, -0.259, 0.259, -0.966, 112.931, 840.553)" fill="none" stroke="#fff" stroke-width="2"/>
      <line id="Line_12" data-name="Line 12" y1="121.395" x2="84.821" transform="matrix(-0.966, -0.259, 0.259, -0.966, 77.778, 977.757)" fill="none" stroke="#fff" stroke-width="2"/>
      <line id="Line_14" data-name="Line 14" y1="113.613" x2="58.363" transform="matrix(-0.966, -0.259, 0.259, -0.966, 37.977, 852.694)" fill="none" stroke="#fff" stroke-width="2"/>
      <line id="Line_15" data-name="Line 15" y1="49.803" x2="45.134" transform="matrix(-0.966, -0.259, 0.259, -0.966, 102.2, 760.338)" fill="none" stroke="#fff" stroke-width="2"/>
      <line id="Line_9" data-name="Line 9" y1="49.803" x2="128.399" transform="matrix(-0.966, -0.259, 0.259, -0.966, 240.497, 887.624)" fill="none" stroke="#fff" stroke-width="2"/>
      <line id="Line_16" data-name="Line 16" x2="42.021" y2="74.705" transform="matrix(-0.966, -0.259, 0.259, -0.966, 66.631, 742.751)" fill="none" stroke="#fff" stroke-width="2"/>
      <g transform="matrix(1, 0, 0, 1, -10.4, 181.69)" filter="url(#Ellipse_9)">
        <circle id="Ellipse_9-3" data-name="Ellipse 9" cx="10.116" cy="10.116" r="10.116" transform="matrix(-0.97, -0.26, 0.26, -0.97, 276.05, 669.17)" fill="#fff"/>
      </g>
      <g transform="matrix(1, 0, 0, 1, -10.4, 181.69)" filter="url(#Ellipse_13)">
        <circle id="Ellipse_13-3" data-name="Ellipse 13" cx="14.785" cy="14.785" r="14.785" transform="matrix(-0.97, -0.26, 0.26, -0.97, 195.43, 757.91)" fill="#fff"/>
      </g>
      <line id="Line_13" data-name="Line 13" x1="65.367" y1="84.043" transform="translate(117.628 849.415)" fill="none" stroke="#fff" stroke-width="2"/>
    </g>
    <path id="Path_4" data-name="Path 4" d="M265.311-410.969s128.455-8.579,171.662-85.759S539.619-603.835,539.619-603.835v192.866Z" transform="translate(-26.619 1178.969)" fill="#6b94ff"/>
    <path id="Path_5" data-name="Path 5" d="M17-1171H252.22s-103.184,76.014-116.956,153.7S17-890.841,17-890.841Z" transform="translate(-17 1171)" fill="#6b94ff"/>
    <text id="Welcome_back_" data-name="Welcome back!" transform="translate(123 321)" fill="#fff" font-size="31" font-family="Poppins-Bold, Poppins" font-weight="700"><tspan x="0" y="0">Welcome back!</tspan></text>
    <text id="We_ve_missed_you_Continue_finding_matches_and_connect_with_professionals_in_your_prospective_industry_now._You_got_this_" data-name="We’ve missed you! Continue finding matches and connect with professionals in your prospective industry now. You got this!" transform="translate(88 356)" fill="#fff" font-size="14" font-family="Poppins-Medium, Poppins" font-weight="500"><tspan x="-159.747" y="15">We’ve missed you! Continue finding matches </tspan><tspan x="-136.15" y="36">and connect with professionals in your </tspan><tspan x="-136.101" y="57">prospective industry now. You got this!</tspan></text>
    <rect id="Rectangle_13" data-name="Rectangle 13" width="853" height="768" transform="translate(513)" fill="#fff"/>
    <g id="Group_4" data-name="Group 4" transform="translate(-479.302 258.178)">
      <g id="Group_3" data-name="Group 3" transform="translate(1593.712 -191.364)">
        <g transform="matrix(1, 0, 0, 1, -1114.41, -66.81)" filter="url(#Ellipse_10-2)">
          <ellipse id="Ellipse_10-4" data-name="Ellipse 10" cx="23.345" cy="23.345" rx="23.345" ry="23.345" transform="matrix(0.97, 0.26, -0.26, 0.97, 1190.85, 258.71)" fill="#aef1fd"/>
        </g>
        <g transform="matrix(1, 0, 0, 1, -1114.41, -66.81)" filter="url(#Ellipse_8-2)">
          <ellipse id="Ellipse_8-4" data-name="Ellipse 8" cx="28.792" cy="28.792" rx="28.792" ry="28.792" transform="matrix(0.97, 0.26, -0.26, 0.97, 1247.31, 156.22)" fill="#aef1fd"/>
        </g>
        <g transform="matrix(1, 0, 0, 1, -1114.41, -66.81)" filter="url(#Ellipse_11-2)">
          <ellipse id="Ellipse_11-4" data-name="Ellipse 11" cx="17.95" cy="17.95" rx="17.95" ry="17.95" transform="matrix(0.97, 0.26, -0.26, 0.97, 1305.23, 279.84)" fill="#aef1fd"/>
        </g>
        <g transform="matrix(1, 0, 0, 1, -1114.41, -66.81)" filter="url(#Ellipse_12-2)">
          <ellipse id="Ellipse_12-4" data-name="Ellipse 12" cx="10.116" cy="10.116" rx="10.116" ry="10.116" transform="matrix(0.97, 0.26, -0.26, 0.97, 1256.94, 324.76)" fill="#aef1fd"/>
        </g>
        <g transform="matrix(1, 0, 0, 1, -1114.41, -66.81)" filter="url(#Ellipse_14-2)">
          <ellipse id="Ellipse_14-4" data-name="Ellipse 14" cx="10.116" cy="10.116" rx="10.116" ry="10.116" transform="matrix(0.97, 0.26, -0.26, 0.97, 1333.53, 372.47)" fill="#aef1fd"/>
        </g>
        <line id="Line_10-2" data-name="Line 10" y1="87.155" x2="28.014" transform="matrix(0.966, 0.259, -0.259, 0.966, 118.874, 126.731)" fill="none" stroke="#aef1fd" stroke-width="2"/>
        <line id="Line_11-2" data-name="Line 11" x1="62.254" y1="74.705" transform="matrix(0.966, 0.259, -0.259, 0.966, 157.96, 137.204)" fill="none" stroke="#aef1fd" stroke-width="2"/>
        <line id="Line_12-2" data-name="Line 12" y1="121.395" x2="84.821" transform="matrix(0.966, 0.259, -0.259, 0.966, 193.113, 0)" fill="none" stroke="#aef1fd" stroke-width="2"/>
        <line id="Line_14-2" data-name="Line 14" y1="113.613" x2="58.363" transform="matrix(0.966, 0.259, -0.259, 0.966, 232.914, 125.063)" fill="none" stroke="#aef1fd" stroke-width="2"/>
        <line id="Line_15-2" data-name="Line 15" y1="49.803" x2="45.134" transform="matrix(0.966, 0.259, -0.259, 0.966, 168.691, 217.42)" fill="none" stroke="#aef1fd" stroke-width="2"/>
        <line id="Line_9-2" data-name="Line 9" y1="49.803" x2="128.399" transform="matrix(0.966, 0.259, -0.259, 0.966, 30.394, 90.133)" fill="none" stroke="#aef1fd" stroke-width="2"/>
        <line id="Line_16-2" data-name="Line 16" x2="42.021" y2="74.705" transform="matrix(0.966, 0.259, -0.259, 0.966, 204.26, 235.007)" fill="none" stroke="#aef1fd" stroke-width="2"/>
        <g transform="matrix(1, 0, 0, 1, -1114.41, -66.81)" filter="url(#Ellipse_9-2)">
          <ellipse id="Ellipse_9-4" data-name="Ellipse 9" cx="10.116" cy="10.116" rx="10.116" ry="10.116" transform="matrix(0.97, 0.26, -0.26, 0.97, 1119.65, 193.71)" fill="#aef1fd"/>
        </g>
        <g transform="matrix(1, 0, 0, 1, -1114.41, -66.81)" filter="url(#Ellipse_13-2)">
          <ellipse id="Ellipse_13-4" data-name="Ellipse 13" cx="14.785" cy="14.785" rx="14.785" ry="14.785" transform="matrix(0.97, 0.26, -0.26, 0.97, 1200.27, 104.97)" fill="#aef1fd"/>
        </g>
        <line id="Line_13-2" data-name="Line 13" x2="65.367" y2="84.043" transform="translate(87.897 44.3)" fill="none" stroke="#aef1fd" stroke-width="2"/>
      </g>
    </g>
    <g transform="matrix(1, 0, 0, 1, 0, 0)" filter="url(#Path_1)">
      <g id="Path_1-2" data-name="Path 1" transform="translate(699 113.59)" fill="#486cff">
        <path d="M 415.0837097167969 538.8168334960938 L 54.01777648925781 538.8168334960938 C 47.08077621459961 538.8168334960938 40.35113525390625 537.374267578125 34.01577758789062 534.5292358398438 C 30.9669189453125 533.1600952148438 28.02541923522949 531.4649047851562 25.27306175231934 529.4906005859375 C 22.54327583312988 527.5325927734375 19.97556304931641 525.2831420898438 17.64127731323242 522.8048706054688 C 12.89699077606201 517.7677612304688 9.171204566955566 511.8997497558594 6.567490577697754 505.3638916015625 C 3.868490695953369 498.5889587402344 2.499990701675415 491.3894653320312 2.499990701675415 483.9653015136719 L 2.499990701675415 57.35138702392578 C 2.499990701675415 49.92724227905273 3.868490695953369 42.72774505615234 6.567490577697754 35.95288467407227 C 9.171204566955566 29.41702842712402 12.89699077606201 23.54902839660645 17.64127731323242 18.5119571685791 C 19.97556304931641 16.03359985351562 22.54327583312988 13.7842435836792 25.27306175231934 11.826171875 C 28.02541923522949 9.851957321166992 30.9669189453125 8.156671524047852 34.01577758789062 6.787600517272949 C 40.35113525390625 3.94260048866272 47.08077621459961 2.50002908706665 54.01777648925781 2.50002908706665 L 341.7303466796875 2.50002908706665 L 415.0837097167969 2.50002908706665 C 422.0206298828125 2.50002908706665 428.7502746582031 3.94260048866272 435.085693359375 6.787600517272949 C 438.1344909667969 8.156671524047852 441.0759887695312 9.851957321166992 443.8284301757812 11.826171875 C 446.5581970214844 13.7842435836792 449.1258544921875 16.03359985351562 451.4601440429688 18.5119571685791 C 456.2044067382812 23.54902839660645 459.9302062988281 29.41702842712402 462.5339050292969 35.95288467407227 C 465.23291015625 42.72774505615234 466.6014099121094 49.92724227905273 466.6014099121094 57.35138702392578 L 466.6014099121094 483.9653015136719 C 466.6014099121094 491.3894653320312 465.23291015625 498.5889587402344 462.5339050292969 505.3638916015625 C 459.9302062988281 511.8997497558594 456.2044067382812 517.7677612304688 451.4601440429688 522.8048706054688 C 449.1258544921875 525.2831420898438 446.5581970214844 527.5325927734375 443.8284301757812 529.4906005859375 C 441.0759887695312 531.4649047851562 438.1344909667969 533.1600952148438 435.085693359375 534.5292358398438 C 428.7502746582031 537.374267578125 422.0206298828125 538.8168334960938 415.0837097167969 538.8168334960938 Z" stroke="none"/>
        <path d="M 54.0177001953125 4.99993896484375 C 47.43612670898438 4.99993896484375 41.05105590820312 6.36865234375 35.03985595703125 9.068115234375 C 29.21035766601562 11.68597412109375 23.96893310546875 15.44000244140625 19.46112060546875 20.2259521484375 C 14.93350219726562 25.0330810546875 11.37677001953125 30.63568115234375 8.889923095703125 36.87811279296875 C 6.30877685546875 43.3572998046875 5 50.24551391601562 5 57.35137939453125 L 5 483.9653015136719 C 5 491.0711669921875 6.30877685546875 497.9593811035156 8.889923095703125 504.4386596679688 C 11.37677001953125 510.6810302734375 14.93350219726562 516.2835693359375 19.46112060546875 521.0907592773438 C 23.96893310546875 525.8767700195312 29.21035766601562 529.6307373046875 35.03985595703125 532.2485961914062 C 41.05105590820312 534.9480590820312 47.43612670898438 536.3167724609375 54.0177001953125 536.3167724609375 L 415.0837097167969 536.3167724609375 C 421.665283203125 536.3167724609375 428.0503540039062 534.9480590820312 434.0615539550781 532.2485961914062 C 439.8910522460938 529.6307373046875 445.1324768066406 525.8767700195312 449.6402893066406 521.0907592773438 C 454.1679077148438 516.2835693359375 457.7246398925781 510.6810302734375 460.2114868164062 504.4386596679688 C 462.7926330566406 497.9593811035156 464.1014099121094 491.0711669921875 464.1014099121094 483.9653015136719 L 464.1014099121094 57.35137939453125 C 464.1014099121094 50.24551391601562 462.7926330566406 43.3572998046875 460.2114868164062 36.87811279296875 C 457.7246398925781 30.63568115234375 454.1679077148438 25.0330810546875 449.6402893066406 20.2259521484375 C 445.1324768066406 15.44000244140625 439.8910522460938 11.68597412109375 434.0615539550781 9.068115234375 C 428.0503540039062 6.36865234375 421.665283203125 4.99993896484375 415.0837097167969 4.99993896484375 L 341.7303466796875 4.99993896484375 L 54.0177001953125 4.99993896484375 M 54.0177001953125 -6.103515625e-05 L 341.7303466796875 -6.103515625e-05 L 415.0837097167969 -6.103515625e-05 C 444.9168395996094 -6.103515625e-05 469.1014099121094 25.6771240234375 469.1014099121094 57.35137939453125 L 469.1014099121094 483.9653015136719 C 469.1014099121094 515.6396484375 444.9168395996094 541.3167724609375 415.0837097167969 541.3167724609375 L 54.0177001953125 541.3167724609375 C 24.1845703125 541.3167724609375 0 515.6396484375 0 483.9653015136719 L 0 57.35137939453125 C 0 25.6771240234375 24.1845703125 -6.103515625e-05 54.0177001953125 -6.103515625e-05 Z" stroke="none" fill="#486cff"/>
      </g>
    </g>
    <g transform="matrix(1, 0, 0, 1, 0, 0)" filter="url(#Rectangle_10)">
      <rect id="Rectangle_10-2" data-name="Rectangle 10" width="360.718" height="45.083" rx="22.541" transform="translate(753.69 290.07)" fill="#fff"/>
    </g>
    <g transform="matrix(1, 0, 0, 1, 0, 0)" filter="url(#Rectangle_11)">
      <rect id="Rectangle_11-2" data-name="Rectangle 11" width="360.718" height="45.083" rx="22.541" transform="translate(753.69 352.16)" fill="#fff"/>
    </g>
    <g id="Component_3_2" data-name="Component 3 – 2" transform="translate(753.692 467.653)">
      <g transform="matrix(1, 0, 0, 1, -753.69, -467.65)" filter="url(#Rectangle_8)">
        <rect id="Rectangle_8-2" data-name="Rectangle 8" width="360.718" height="45.083" rx="22.541" transform="translate(753.69 467.65)" fill="#aef1fd"/>
      </g>
    </g>
    <text id="Email" transform="translate(795 317.252)" fill="#486cff" font-size="13" font-family="Poppins-Medium, Poppins" font-weight="500"><tspan x="-17.998" y="0">Email</tspan></text>
    <text id="Password" transform="translate(809 379.347)" fill="#486cff" font-size="13" font-family="Poppins-Medium, Poppins" font-weight="500"><tspan x="-31.629" y="0">Password</tspan></text>
    <g id="Component_4_2" data-name="Component 4 – 2" transform="translate(912.051 480.694)">
      <text id="Sign_in" data-name="Sign in" transform="translate(22 14)" fill="#4b4b4b" font-size="13" font-family="Poppins-Medium, Poppins" font-weight="500"><tspan x="-21.892" y="0">Sign in</tspan></text>
    </g>
    <text id="Don_t_have_an_account_Create_account" data-name="Don’t have an account? Create account" transform="translate(934.051 568.384)" fill="#fff" font-size="15" font-family="Poppins-Medium, Poppins" font-weight="500"><tspan x="-150.81" y="0">Don’t have an account? </tspan><tspan y="0" fill="#aef1fd">Create account</tspan></text>
    <text id="Sign_in-2" data-name="Sign in" transform="translate(940 204)" fill="#fff" font-size="24" font-family="Poppins-Medium, Poppins" font-weight="500"><tspan x="-40.416" y="0">Sign in</tspan></text>
    <text id="Forgot_password_Click_here" data-name="Forgot password? Click here" transform="translate(1014 427)" fill="#fff" font-size="12" font-family="Poppins-Medium, Poppins" font-weight="500"><tspan x="-85.284" y="0">Forgot password? </tspan><tspan y="0" fill="#aef1fd">Click here</tspan></text>
    <text id="Trellis-2" data-name="Trellis" transform="translate(71 46)" fill="#fff" font-size="20" font-family="Poppins-Medium, Poppins" font-weight="500"><tspan x="-28.91" y="0">Trellis</tspan></text>
  </g>
</svg>
