<svg xmlns="http://www.w3.org/2000/svg" xmlns:xlink="http://www.w3.org/1999/xlink" width="1366" height="768" viewBox="0 0 1366 768">
  <defs>
    <filter id="Ellipse_10" x="1169.764" y="252.71" width="75.184" height="75.184" filterUnits="userSpaceOnUse">
      <feOffset dy="3" input="SourceAlpha"/>
      <feGaussianBlur stdDeviation="3" result="blur"/>
      <feFlood flood-opacity="0.161"/>
      <feComposite operator="in" in2="blur"/>
      <feComposite in="SourceGraphic"/>
    </filter>
    <filter id="Ellipse_8" x="1223.409" y="150.218" width="88.527" height="88.527" filterUnits="userSpaceOnUse">
      <feOffset dy="3" input="SourceAlpha"/>
      <feGaussianBlur stdDeviation="3" result="blur-2"/>
      <feFlood flood-opacity="0.161"/>
      <feComposite operator="in" in2="blur-2"/>
      <feComposite in="SourceGraphic"/>
    </filter>
    <filter id="Ellipse_11" x="1286.934" y="273.837" width="61.968" height="61.968" filterUnits="userSpaceOnUse">
      <feOffset dy="3" input="SourceAlpha"/>
      <feGaussianBlur stdDeviation="3" result="blur-3"/>
      <feFlood flood-opacity="0.161"/>
      <feComposite operator="in" in2="blur-3"/>
      <feComposite in="SourceGraphic"/>
    </filter>
    <filter id="Ellipse_12" x="1242.7" y="318.755" width="42.78" height="42.78" filterUnits="userSpaceOnUse">
      <feOffset dy="3" input="SourceAlpha"/>
      <feGaussianBlur stdDeviation="3" result="blur-4"/>
      <feFlood flood-opacity="0.161"/>
      <feComposite operator="in" in2="blur-4"/>
      <feComposite in="SourceGraphic"/>
    </filter>
    <filter id="Ellipse_14" x="1319.297" y="366.466" width="42.78" height="42.78" filterUnits="userSpaceOnUse">
      <feOffset dy="3" input="SourceAlpha"/>
      <feGaussianBlur stdDeviation="3" result="blur-5"/>
      <feFlood flood-opacity="0.161"/>
      <feComposite operator="in" in2="blur-5"/>
      <feComposite in="SourceGraphic"/>
    </filter>
    <filter id="Ellipse_9" x="1105.41" y="187.71" width="42.78" height="42.78" filterUnits="userSpaceOnUse">
      <feOffset dy="3" input="SourceAlpha"/>
      <feGaussianBlur stdDeviation="3" result="blur-6"/>
      <feFlood flood-opacity="0.161"/>
      <feComposite operator="in" in2="blur-6"/>
      <feComposite in="SourceGraphic"/>
    </filter>
    <filter id="Ellipse_13" x="1183.618" y="98.969" width="54.216" height="54.216" filterUnits="userSpaceOnUse">
      <feOffset dy="3" input="SourceAlpha"/>
      <feGaussianBlur stdDeviation="3" result="blur-7"/>
      <feFlood flood-opacity="0.161"/>
      <feComposite operator="in" in2="blur-7"/>
      <feComposite in="SourceGraphic"/>
    </filter>
    <filter id="Ellipse_10-2" x="136.962" y="534.988" width="75.184" height="75.184" filterUnits="userSpaceOnUse">
      <feOffset dy="3" input="SourceAlpha"/>
      <feGaussianBlur stdDeviation="3" result="blur-8"/>
      <feFlood flood-opacity="0.161"/>
      <feComposite operator="in" in2="blur-8"/>
      <feComposite in="SourceGraphic"/>
    </filter>
    <filter id="Ellipse_8-2" x="69.974" y="624.137" width="88.527" height="88.527" filterUnits="userSpaceOnUse">
      <feOffset dy="3" input="SourceAlpha"/>
      <feGaussianBlur stdDeviation="3" result="blur-9"/>
      <feFlood flood-opacity="0.161"/>
      <feComposite operator="in" in2="blur-9"/>
      <feComposite in="SourceGraphic"/>
    </filter>
    <filter id="Ellipse_11-2" x="33.008" y="527.077" width="61.968" height="61.968" filterUnits="userSpaceOnUse">
      <feOffset dy="3" input="SourceAlpha"/>
      <feGaussianBlur stdDeviation="3" result="blur-10"/>
      <feFlood flood-opacity="0.161"/>
      <feComposite operator="in" in2="blur-10"/>
      <feComposite in="SourceGraphic"/>
    </filter>
    <filter id="Ellipse_12-2" x="96.43" y="501.347" width="42.78" height="42.78" filterUnits="userSpaceOnUse">
      <feOffset dy="3" input="SourceAlpha"/>
      <feGaussianBlur stdDeviation="3" result="blur-11"/>
      <feFlood flood-opacity="0.161"/>
      <feComposite operator="in" in2="blur-11"/>
      <feComposite in="SourceGraphic"/>
    </filter>
    <filter id="Ellipse_14-2" x="19.833" y="453.636" width="42.78" height="42.78" filterUnits="userSpaceOnUse">
      <feOffset dy="3" input="SourceAlpha"/>
      <feGaussianBlur stdDeviation="3" result="blur-12"/>
      <feFlood flood-opacity="0.161"/>
      <feComposite operator="in" in2="blur-12"/>
      <feComposite in="SourceGraphic"/>
    </filter>
    <filter id="Ellipse_9-2" x="233.72" y="632.392" width="42.78" height="42.78" filterUnits="userSpaceOnUse">
      <feOffset dy="3" input="SourceAlpha"/>
      <feGaussianBlur stdDeviation="3" result="blur-13"/>
      <feFlood flood-opacity="0.161"/>
      <feComposite operator="in" in2="blur-13"/>
      <feComposite in="SourceGraphic"/>
    </filter>
    <filter id="Ellipse_13-2" x="144.076" y="709.696" width="54.216" height="54.216" filterUnits="userSpaceOnUse">
      <feOffset dy="3" input="SourceAlpha"/>
      <feGaussianBlur stdDeviation="3" result="blur-14"/>
      <feFlood flood-opacity="0.161"/>
      <feComposite operator="in" in2="blur-14"/>
      <feComposite in="SourceGraphic"/>
    </filter>
    <filter id="Path_1" x="696" y="60.069" width="493.101" height="659.601" filterUnits="userSpaceOnUse">
      <feOffset dy="6" input="SourceAlpha"/>
      <feGaussianBlur stdDeviation="4" result="blur-15"/>
      <feFlood flood-opacity="0.161"/>
      <feComposite operator="in" in2="blur-15"/>
      <feComposite in="SourceGraphic"/>
    </filter>
    <filter id="Rectangle_4" x="752.692" y="284.285" width="378.718" height="63.083" filterUnits="userSpaceOnUse">
      <feOffset dy="3" input="SourceAlpha"/>
      <feGaussianBlur stdDeviation="3" result="blur-16"/>
      <feFlood flood-opacity="0.161"/>
      <feComposite operator="in" in2="blur-16"/>
      <feComposite in="SourceGraphic"/>
    </filter>
    <filter id="Rectangle_10" x="752.692" y="346.38" width="378.718" height="63.083" filterUnits="userSpaceOnUse">
      <feOffset dy="3" input="SourceAlpha"/>
      <feGaussianBlur stdDeviation="3" result="blur-17"/>
      <feFlood flood-opacity="0.161"/>
      <feComposite operator="in" in2="blur-17"/>
      <feComposite in="SourceGraphic"/>
    </filter>
    <filter id="Rectangle_11" x="752.692" y="408.476" width="378.718" height="63.083" filterUnits="userSpaceOnUse">
      <feOffset dy="3" input="SourceAlpha"/>
      <feGaussianBlur stdDeviation="3" result="blur-18"/>
      <feFlood flood-opacity="0.161"/>
      <feComposite operator="in" in2="blur-18"/>
      <feComposite in="SourceGraphic"/>
    </filter>
    <filter id="Rectangle_12" x="752.692" y="470.571" width="378.718" height="63.083" filterUnits="userSpaceOnUse">
      <feOffset dy="3" input="SourceAlpha"/>
      <feGaussianBlur stdDeviation="3" result="blur-19"/>
      <feFlood flood-opacity="0.161"/>
      <feComposite operator="in" in2="blur-19"/>
      <feComposite in="SourceGraphic"/>
    </filter>
    <filter id="Rectangle_8" x="752.692" y="547.806" width="378.718" height="63.083" filterUnits="userSpaceOnUse">
      <feOffset dy="3" input="SourceAlpha"/>
      <feGaussianBlur stdDeviation="3" result="blur-20"/>
      <feFlood flood-opacity="0.161"/>
      <feComposite operator="in" in2="blur-20"/>
      <feComposite in="SourceGraphic"/>
    </filter>
    <filter id="Ellipse_15" x="753" y="226" width="44" height="44" filterUnits="userSpaceOnUse">
      <feOffset dy="3" input="SourceAlpha"/>
      <feGaussianBlur stdDeviation="3" result="blur-21"/>
      <feFlood flood-opacity="0.161"/>
      <feComposite operator="in" in2="blur-21"/>
      <feComposite in="SourceGraphic"/>
    </filter>
    <filter id="Ellipse_15-2" x="888" y="226" width="44" height="44" filterUnits="userSpaceOnUse">
      <feOffset dy="3" input="SourceAlpha"/>
      <feGaussianBlur stdDeviation="3" result="blur-22"/>
      <feFlood flood-opacity="0.161"/>
      <feComposite operator="in" in2="blur-22"/>
      <feComposite in="SourceGraphic"/>
    </filter>
    <clipPath id="clip-Sign_up_page_selection_mentor_">
      <rect width="1366" height="768"/>
    </clipPath>
  </defs>
  <g id="Sign_up_page_selection_mentor_" data-name="Sign up page – selection mentor " clip-path="url(#clip-Sign_up_page_selection_mentor_)">
    <rect width="1366" height="768" fill="#fff"/>
    <g id="Group_4" data-name="Group 4" transform="translate(-479.302 258.178)">
      <g id="Group_3" data-name="Group 3" transform="translate(1593.712 -191.364)">
        <g transform="matrix(1, 0, 0, 1, -1114.41, -66.81)" filter="url(#Ellipse_10)">
          <ellipse id="Ellipse_10-3" data-name="Ellipse 10" cx="23.345" cy="23.345" rx="23.345" ry="23.345" transform="matrix(0.97, 0.26, -0.26, 0.97, 1190.85, 258.71)" fill="#aef1fd"/>
        </g>
        <g transform="matrix(1, 0, 0, 1, -1114.41, -66.81)" filter="url(#Ellipse_8)">
          <ellipse id="Ellipse_8-3" data-name="Ellipse 8" cx="28.792" cy="28.792" rx="28.792" ry="28.792" transform="matrix(0.97, 0.26, -0.26, 0.97, 1247.31, 156.22)" fill="#aef1fd"/>
        </g>
        <g transform="matrix(1, 0, 0, 1, -1114.41, -66.81)" filter="url(#Ellipse_11)">
          <ellipse id="Ellipse_11-3" data-name="Ellipse 11" cx="17.95" cy="17.95" rx="17.95" ry="17.95" transform="matrix(0.97, 0.26, -0.26, 0.97, 1305.23, 279.84)" fill="#aef1fd"/>
        </g>
        <g transform="matrix(1, 0, 0, 1, -1114.41, -66.81)" filter="url(#Ellipse_12)">
          <ellipse id="Ellipse_12-3" data-name="Ellipse 12" cx="10.116" cy="10.116" rx="10.116" ry="10.116" transform="matrix(0.97, 0.26, -0.26, 0.97, 1256.94, 324.76)" fill="#aef1fd"/>
        </g>
        <g transform="matrix(1, 0, 0, 1, -1114.41, -66.81)" filter="url(#Ellipse_14)">
          <ellipse id="Ellipse_14-3" data-name="Ellipse 14" cx="10.116" cy="10.116" rx="10.116" ry="10.116" transform="matrix(0.97, 0.26, -0.26, 0.97, 1333.53, 372.47)" fill="#aef1fd"/>
        </g>
        <line id="Line_10" data-name="Line 10" y1="87.155" x2="28.014" transform="matrix(0.966, 0.259, -0.259, 0.966, 118.874, 126.731)" fill="none" stroke="#aef1fd" stroke-width="2"/>
        <line id="Line_11" data-name="Line 11" x1="62.254" y1="74.705" transform="matrix(0.966, 0.259, -0.259, 0.966, 157.96, 137.204)" fill="none" stroke="#aef1fd" stroke-width="2"/>
        <line id="Line_12" data-name="Line 12" y1="121.395" x2="84.821" transform="matrix(0.966, 0.259, -0.259, 0.966, 193.113, 0)" fill="none" stroke="#aef1fd" stroke-width="2"/>
        <line id="Line_14" data-name="Line 14" y1="113.613" x2="58.363" transform="matrix(0.966, 0.259, -0.259, 0.966, 232.914, 125.063)" fill="none" stroke="#aef1fd" stroke-width="2"/>
        <line id="Line_15" data-name="Line 15" y1="49.803" x2="45.134" transform="matrix(0.966, 0.259, -0.259, 0.966, 168.691, 217.42)" fill="none" stroke="#aef1fd" stroke-width="2"/>
        <line id="Line_9" data-name="Line 9" y1="49.803" x2="128.399" transform="matrix(0.966, 0.259, -0.259, 0.966, 30.394, 90.133)" fill="none" stroke="#aef1fd" stroke-width="2"/>
        <line id="Line_16" data-name="Line 16" x2="42.021" y2="74.705" transform="matrix(0.966, 0.259, -0.259, 0.966, 204.26, 235.007)" fill="none" stroke="#aef1fd" stroke-width="2"/>
        <g transform="matrix(1, 0, 0, 1, -1114.41, -66.81)" filter="url(#Ellipse_9)">
          <ellipse id="Ellipse_9-3" data-name="Ellipse 9" cx="10.116" cy="10.116" rx="10.116" ry="10.116" transform="matrix(0.97, 0.26, -0.26, 0.97, 1119.65, 193.71)" fill="#aef1fd"/>
        </g>
        <g transform="matrix(1, 0, 0, 1, -1114.41, -66.81)" filter="url(#Ellipse_13)">
          <ellipse id="Ellipse_13-3" data-name="Ellipse 13" cx="14.785" cy="14.785" rx="14.785" ry="14.785" transform="matrix(0.97, 0.26, -0.26, 0.97, 1200.27, 104.97)" fill="#aef1fd"/>
        </g>
        <line id="Line_13" data-name="Line 13" x2="65.367" y2="84.043" transform="translate(87.897 44.3)" fill="none" stroke="#aef1fd" stroke-width="2"/>
      </g>
    </g>
    <rect id="Rectangle_3" data-name="Rectangle 3" width="513" height="768" fill="#486cff"/>
    <g id="Group_2" data-name="Group 2" transform="translate(-3.391 -187.69)">
      <g transform="matrix(1, 0, 0, 1, 3.39, 187.69)" filter="url(#Ellipse_10-2)">
        <circle id="Ellipse_10-4" data-name="Ellipse 10" cx="23.345" cy="23.345" r="23.345" transform="matrix(-0.97, -0.26, 0.26, -0.97, 191.06, 598.17)" fill="#fff"/>
      </g>
      <g transform="matrix(1, 0, 0, 1, 3.39, 187.69)" filter="url(#Ellipse_8-2)">
        <circle id="Ellipse_8-4" data-name="Ellipse 8" cx="28.792" cy="28.792" r="28.792" transform="matrix(-0.97, -0.26, 0.26, -0.97, 134.6, 700.66)" fill="#fff"/>
      </g>
      <g transform="matrix(1, 0, 0, 1, 3.39, 187.69)" filter="url(#Ellipse_11-2)">
        <circle id="Ellipse_11-4" data-name="Ellipse 11" cx="17.95" cy="17.95" r="17.95" transform="matrix(-0.97, -0.26, 0.26, -0.97, 76.68, 577.04)" fill="#fff"/>
      </g>
      <g transform="matrix(1, 0, 0, 1, 3.39, 187.69)" filter="url(#Ellipse_12-2)">
        <circle id="Ellipse_12-4" data-name="Ellipse 12" cx="10.116" cy="10.116" r="10.116" transform="matrix(-0.97, -0.26, 0.26, -0.97, 124.97, 532.13)" fill="#fff"/>
      </g>
      <g transform="matrix(1, 0, 0, 1, 3.39, 187.69)" filter="url(#Ellipse_14-2)">
        <circle id="Ellipse_14-4" data-name="Ellipse 14" cx="10.116" cy="10.116" r="10.116" transform="matrix(-0.97, -0.26, 0.26, -0.97, 48.38, 484.42)" fill="#fff"/>
      </g>
      <line id="Line_10-2" data-name="Line 10" y1="87.155" x2="28.014" transform="matrix(-0.966, -0.259, 0.259, -0.966, 152.017, 851.026)" fill="none" stroke="#fff" stroke-width="2"/>
      <line id="Line_11-2" data-name="Line 11" x1="62.254" y1="74.705" transform="matrix(-0.966, -0.259, 0.259, -0.966, 112.931, 840.553)" fill="none" stroke="#fff" stroke-width="2"/>
      <line id="Line_12-2" data-name="Line 12" y1="121.395" x2="84.821" transform="matrix(-0.966, -0.259, 0.259, -0.966, 77.778, 977.757)" fill="none" stroke="#fff" stroke-width="2"/>
      <line id="Line_14-2" data-name="Line 14" y1="113.613" x2="58.363" transform="matrix(-0.966, -0.259, 0.259, -0.966, 37.977, 852.694)" fill="none" stroke="#fff" stroke-width="2"/>
      <line id="Line_15-2" data-name="Line 15" y1="49.803" x2="45.134" transform="matrix(-0.966, -0.259, 0.259, -0.966, 102.2, 760.338)" fill="none" stroke="#fff" stroke-width="2"/>
      <line id="Line_9-2" data-name="Line 9" y1="49.803" x2="128.399" transform="matrix(-0.966, -0.259, 0.259, -0.966, 240.497, 887.624)" fill="none" stroke="#fff" stroke-width="2"/>
      <line id="Line_16-2" data-name="Line 16" x2="42.021" y2="74.705" transform="matrix(-0.966, -0.259, 0.259, -0.966, 66.631, 742.751)" fill="none" stroke="#fff" stroke-width="2"/>
      <g transform="matrix(1, 0, 0, 1, 3.39, 187.69)" filter="url(#Ellipse_9-2)">
        <circle id="Ellipse_9-4" data-name="Ellipse 9" cx="10.116" cy="10.116" r="10.116" transform="matrix(-0.97, -0.26, 0.26, -0.97, 262.26, 663.17)" fill="#fff"/>
      </g>
      <g transform="matrix(1, 0, 0, 1, 3.39, 187.69)" filter="url(#Ellipse_13-2)">
        <circle id="Ellipse_13-4" data-name="Ellipse 13" cx="14.785" cy="14.785" r="14.785" transform="matrix(-0.97, -0.26, 0.26, -0.97, 181.64, 751.91)" fill="#fff"/>
      </g>
      <line id="Line_13-2" data-name="Line 13" x1="65.367" y1="84.043" transform="translate(117.628 849.415)" fill="none" stroke="#fff" stroke-width="2"/>
    </g>
    <g transform="matrix(1, 0, 0, 1, 0, 0)" filter="url(#Path_1)">
      <g id="Path_1-2" data-name="Path 1" transform="translate(708 66.07)" fill="#486cff">
        <path d="M 415.0837097167969 633.100830078125 L 54.01778793334961 633.100830078125 C 47.13603973388672 633.100830078125 40.45412063598633 631.4174194335938 34.1577033996582 628.0974731445312 C 31.11503791809082 626.4931640625 28.17745590209961 624.5049438476562 25.42645454406738 622.1879272460938 C 22.69003868103027 619.8833618164062 20.11462211608887 617.2338256835938 17.77162170410156 614.3129272460938 C 15.4205379486084 611.3820190429688 13.28470516204834 608.1544189453125 11.42345523834229 604.7198486328125 C 9.539621353149414 601.2437744140625 7.921038150787354 597.525634765625 6.612454891204834 593.6690063476562 C 3.883621692657471 585.6260986328125 2.500038385391235 577.0773315429688 2.500038385391235 568.2601928710938 L 2.500038385391235 67.34058380126953 C 2.500038385391235 58.52341461181641 3.883621692657471 49.97466659545898 6.612454891204834 41.93183135986328 C 7.921038150787354 38.07508087158203 9.539621353149414 34.35708236694336 11.42345523834229 30.8809986114502 C 13.28470516204834 27.44641494750977 15.4205379486084 24.21883201599121 17.77162170410156 21.28791427612305 C 20.11462211608887 18.36699867248535 22.69003868103027 15.71749877929688 25.42645454406738 13.41291522979736 C 28.17745590209961 11.09591484069824 31.11503791809082 9.107665061950684 34.1577033996582 7.503331661224365 C 40.45412063598633 4.183414936065674 47.13603973388672 2.499998331069946 54.01778793334961 2.499998331069946 L 341.7303771972656 2.499998331069946 L 415.0837097167969 2.499998331069946 C 421.9654541015625 2.499998331069946 428.6473693847656 4.183414936065674 434.9437866210938 7.503331661224365 C 437.9864501953125 9.107665061950684 440.9240417480469 11.09591484069824 443.675048828125 13.41291522979736 C 446.4114685058594 15.71749877929688 448.9868774414062 18.36699867248535 451.3298645019531 21.28791427612305 C 453.6809692382812 24.21883201599121 455.8168029785156 27.44641494750977 457.6780395507812 30.8809986114502 C 459.5618591308594 34.35708236694336 461.1804504394531 38.07508087158203 462.4890441894531 41.93183135986328 C 465.2178649902344 49.97466659545898 466.6014404296875 58.52341461181641 466.6014404296875 67.34058380126953 L 466.6014404296875 568.2601928710938 C 466.6014404296875 577.0773315429688 465.2178649902344 585.6260986328125 462.4890441894531 593.6690063476562 C 461.1804504394531 597.525634765625 459.5618591308594 601.2437744140625 457.6780395507812 604.7198486328125 C 455.8168029785156 608.1544189453125 453.6809692382812 611.3820190429688 451.3298645019531 614.3129272460938 C 448.9868774414062 617.2338256835938 446.4114685058594 619.8833618164062 443.675048828125 622.1879272460938 C 440.9240417480469 624.5049438476562 437.9864501953125 626.4931640625 434.9437866210938 628.0974731445312 C 428.6473693847656 631.4174194335938 421.9654541015625 633.100830078125 415.0837097167969 633.100830078125 Z" stroke="none"/>
        <path d="M 54.0177001953125 5 C 47.54644775390625 5 41.25686645507812 6.58624267578125 35.3236083984375 9.7147216796875 C 32.439208984375 11.23577880859375 29.65103149414062 13.12335205078125 27.03677368164062 15.3250732421875 C 24.42437744140625 17.5252685546875 21.96319580078125 20.0577392578125 19.72161865234375 22.8521728515625 C 17.46395874023438 25.66668701171875 15.41152954101562 28.76873779296875 13.62127685546875 32.0721435546875 C 11.80471801757812 35.42425537109375 10.2430419921875 39.0118408203125 8.9798583984375 42.735107421875 C 6.338958740234375 50.5186767578125 4.999969482421875 58.79718017578125 4.999969482421875 67.340576171875 L 4.999969482421875 568.2601318359375 C 4.999969482421875 576.8035888671875 6.338958740234375 585.0820922851562 8.9798583984375 592.86572265625 C 10.2430419921875 596.5889892578125 11.80471801757812 600.176513671875 13.62127685546875 603.5286865234375 C 15.41152954101562 606.8320922851562 17.46395874023438 609.93408203125 19.72161865234375 612.7485961914062 C 21.96319580078125 615.5430908203125 24.42437744140625 618.0755615234375 27.03677368164062 620.2757568359375 C 29.65103149414062 622.4774780273438 32.439208984375 624.3651123046875 35.3236083984375 625.8861083984375 C 41.25686645507812 629.0145874023438 47.54644775390625 630.600830078125 54.0177001953125 630.600830078125 L 415.0837097167969 630.600830078125 C 421.5548706054688 630.600830078125 427.8444519042969 629.0145874023438 433.7777099609375 625.8861083984375 C 436.6622009277344 624.3651123046875 439.4502868652344 622.4774780273438 442.0645446777344 620.2757568359375 C 444.6769409179688 618.0755615234375 447.1381225585938 615.5430908203125 449.3796997070312 612.7485961914062 C 451.6373596191406 609.9341430664062 453.6897888183594 606.8320922851562 455.4800415039062 603.5286865234375 C 457.296630859375 600.176513671875 458.8582763671875 596.5889892578125 460.1214599609375 592.86572265625 C 462.7623596191406 585.0820922851562 464.1013793945312 576.8035888671875 464.1013793945312 568.2601318359375 L 464.1013793945312 67.340576171875 C 464.1013793945312 58.79718017578125 462.7623596191406 50.5186767578125 460.1214599609375 42.735107421875 C 458.8582763671875 39.0118408203125 457.296630859375 35.42425537109375 455.4800415039062 32.0721435546875 C 453.6897888183594 28.76873779296875 451.6373596191406 25.66668701171875 449.3796997070312 22.8521728515625 C 447.1381225585938 20.0577392578125 444.6769409179688 17.5252685546875 442.0645446777344 15.3250732421875 C 439.4502868652344 13.12335205078125 436.6622009277344 11.23577880859375 433.7777099609375 9.7147216796875 C 427.8444519042969 6.58624267578125 421.5548706054688 5 415.0837097167969 5 L 341.7303771972656 5 L 54.0177001953125 5 M 54.0177001953125 0 L 341.7303771972656 0 L 415.0837097167969 0 C 444.9167785644531 0 469.1013793945312 30.1494140625 469.1013793945312 67.340576171875 L 469.1013793945312 568.2601318359375 C 469.1013793945312 605.451416015625 444.9167785644531 635.600830078125 415.0837097167969 635.600830078125 L 54.0177001953125 635.600830078125 C 24.18453979492188 635.600830078125 -3.0517578125e-05 605.451416015625 -3.0517578125e-05 568.2601318359375 L -3.0517578125e-05 67.340576171875 C -3.0517578125e-05 30.1494140625 24.18453979492188 0 54.0177001953125 0 Z" stroke="none" fill="#486cff"/>
      </g>
    </g>
    <path id="Path_4" data-name="Path 4" d="M265.311-410.969s128.455-8.579,171.662-85.759S539.619-603.835,539.619-603.835v192.866Z" transform="translate(-26.619 1178.969)" fill="#6b94ff"/>
    <path id="Path_5" data-name="Path 5" d="M17-1171H252.22s-103.184,76.014-116.956,153.7S17-890.841,17-890.841Z" transform="translate(-17 1171)" fill="#6b94ff"/>
    <text id="Trellis" transform="translate(59 41)" fill="#fff" font-size="20" font-family="Poppins-Medium, Poppins" font-weight="500"><tspan x="-28.91" y="0">Trellis</tspan></text>
    <text id="Create_Account" data-name="Create Account" transform="translate(942.551 141.089)" fill="#fff" font-size="24" font-family="Poppins-Medium, Poppins" font-weight="500"><tspan x="-94.872" y="0">Create Account</tspan></text>
    <g transform="matrix(1, 0, 0, 1, 0, 0)" filter="url(#Rectangle_4)">
      <rect id="Rectangle_4-2" data-name="Rectangle 4" width="360.718" height="45.083" rx="22.541" transform="translate(761.69 290.29)" fill="#fff"/>
    </g>
    <g transform="matrix(1, 0, 0, 1, 0, 0)" filter="url(#Rectangle_10)">
      <rect id="Rectangle_10-2" data-name="Rectangle 10" width="360.718" height="45.083" rx="22.541" transform="translate(761.69 352.38)" fill="#fff"/>
    </g>
    <g transform="matrix(1, 0, 0, 1, 0, 0)" filter="url(#Rectangle_11)">
      <rect id="Rectangle_11-2" data-name="Rectangle 11" width="360.718" height="45.083" rx="22.541" transform="translate(761.69 414.48)" fill="#fff"/>
    </g>
    <g transform="matrix(1, 0, 0, 1, 0, 0)" filter="url(#Rectangle_12)">
      <rect id="Rectangle_12-2" data-name="Rectangle 12" width="360.718" height="45.083" rx="22.541" transform="translate(761.69 476.57)" fill="#fff"/>
    </g>
    <g transform="matrix(1, 0, 0, 1, 0, 0)" filter="url(#Rectangle_8)">
      <rect id="Rectangle_8-2" data-name="Rectangle 8" width="360.718" height="45.083" rx="22.541" transform="translate(761.69 553.81)" fill="#aef1fd"/>
    </g>
    <text id="Full_name" data-name="Full name" transform="translate(815 316.47)" fill="#486cff" font-size="12" font-family="Poppins-Medium, Poppins" font-weight="500"><tspan x="-29.61" y="0">Full name</tspan></text>
    <text id="Email" transform="translate(803 379.565)" fill="#486cff" font-size="13" font-family="Poppins-Medium, Poppins" font-weight="500"><tspan x="-17.998" y="0">Email</tspan></text>
    <text id="Password" transform="translate(817 441.661)" fill="#486cff" font-size="13" font-family="Poppins-Medium, Poppins" font-weight="500"><tspan x="-31.629" y="0">Password</tspan></text>
    <text id="Confirm_password" data-name="Confirm password" transform="translate(841 502.331)" fill="#486cff" font-size="12" font-family="Poppins-Medium, Poppins" font-weight="500"><tspan x="-55.728" y="0">Confirm password</tspan></text>
    <text id="Create_account-2" data-name="Create account" transform="translate(942.051 580.847)" fill="#4b4b4b" font-size="13" font-family="Poppins-Medium, Poppins" font-weight="500"><tspan x="-51.265" y="0">Create account</tspan></text>
    <text id="Already_have_an_account_Login" data-name="Already have an account? Login" transform="translate(942.551 647)" fill="#fff" font-size="15" font-family="Poppins-Medium, Poppins" font-weight="500"><tspan x="-121.38" y="0">Already have an account? </tspan><tspan y="0" fill="#aef1fd">Login</tspan></text>
    <text id="Type_of_account" data-name="Type of account" transform="translate(823 206)" fill="#fff" font-size="15" font-family="Poppins-Medium, Poppins" font-weight="500"><tspan x="-60.878" y="0">Type of account</tspan></text>
    <text id="Mentor" transform="translate(821 250)" fill="#fff" font-size="12" font-family="Poppins-Medium, Poppins" font-weight="500"><tspan x="-21.252" y="0">Mentor</tspan></text>
    <text id="Mentee" transform="translate(957 250)" fill="#fff" font-size="12" font-family="Poppins-Medium, Poppins" font-weight="500"><tspan x="-22.524" y="0">Mentee</tspan></text>
    <g id="Component_1_3" data-name="Component 1 – 3" transform="translate(762 232)">
      <g transform="matrix(1, 0, 0, 1, -762, -232)" filter="url(#Ellipse_15)">
        <circle id="Ellipse_15-3" data-name="Ellipse 15" cx="13" cy="13" r="13" transform="translate(762 232)" fill="#aef1fd"/>
      </g>
    </g>
    <g id="Component_1_4" data-name="Component 1 – 4" transform="translate(897 232)">
      <g transform="matrix(1, 0, 0, 1, -897, -232)" filter="url(#Ellipse_15-2)">
        <circle id="Ellipse_15-4" data-name="Ellipse 15" cx="13" cy="13" r="13" transform="translate(897 232)" fill="#fff"/>
      </g>
    </g>
    <text id="Welcome_to_Trellis_" data-name="Welcome to Trellis!" transform="translate(104 335)" fill="#fff" font-size="31" font-family="Poppins-Bold, Poppins" font-weight="700"><tspan x="0" y="0">Welcome to Trellis!</tspan></text>
    <text id="Get_matched_with_mentors_and_receive_guidance_in_all_your_professional_endeavors" data-name="Get matched with mentors and receive guidance in all your professional endeavors" transform="translate(84 355)" fill="#fff" font-size="14" font-family="Poppins-Medium, Poppins" font-weight="500"><tspan x="-138.026" y="15">Get matched with mentors and receive </tspan><tspan x="-154.462" y="36">guidance in all your professional endeavors</tspan></text>
  </g>
</svg>
